<mxfile host="app.diagrams.net" modified="2023-08-22T07:18:17.819Z" agent="Mozilla/5.0 (X11; Ubuntu; Linux x86_64; rv:109.0) Gecko/20100101 Firefox/115.0" etag="1qnEMMMbGtjvTdY40JF8" version="21.6.8" type="github">
  <diagram name="Page-1" id="50VaB2P3BrjjNeUXdHy0">
    <mxGraphModel dx="834" dy="492" grid="1" gridSize="10" guides="1" tooltips="1" connect="1" arrows="1" fold="1" page="1" pageScale="1" pageWidth="850" pageHeight="1100" math="0" shadow="0">
      <root>
        <mxCell id="0" />
        <mxCell id="1" parent="0" />
        <mxCell id="l1wgovTy8GZiNXY8hCqC-5" value="" style="rounded=0;whiteSpace=wrap;html=1;" vertex="1" parent="1">
          <mxGeometry x="285" y="80" width="350" height="420" as="geometry" />
        </mxCell>
        <mxCell id="l1wgovTy8GZiNXY8hCqC-6" value="&lt;div&gt;user&lt;/div&gt;&lt;div&gt;&lt;br&gt;&lt;/div&gt;" style="shape=umlActor;verticalLabelPosition=bottom;verticalAlign=top;html=1;outlineConnect=0;" vertex="1" parent="1">
          <mxGeometry x="720" y="190" width="80" height="170" as="geometry" />
        </mxCell>
        <mxCell id="l1wgovTy8GZiNXY8hCqC-15" value="" style="endArrow=none;html=1;rounded=0;" edge="1" parent="1">
          <mxGeometry width="50" height="50" relative="1" as="geometry">
            <mxPoint x="150" y="250" as="sourcePoint" />
            <mxPoint x="310" y="200" as="targetPoint" />
            <Array as="points" />
          </mxGeometry>
        </mxCell>
        <mxCell id="l1wgovTy8GZiNXY8hCqC-16" value="" style="endArrow=none;html=1;rounded=0;" edge="1" parent="1">
          <mxGeometry width="50" height="50" relative="1" as="geometry">
            <mxPoint x="310" y="200" as="sourcePoint" />
            <mxPoint x="380" y="200" as="targetPoint" />
          </mxGeometry>
        </mxCell>
        <mxCell id="l1wgovTy8GZiNXY8hCqC-17" value="" style="endArrow=none;html=1;rounded=0;exitX=0.968;exitY=0.32;exitDx=0;exitDy=0;exitPerimeter=0;" edge="1" parent="1" source="l1wgovTy8GZiNXY8hCqC-21">
          <mxGeometry width="50" height="50" relative="1" as="geometry">
            <mxPoint x="520" y="420" as="sourcePoint" />
            <mxPoint x="720" y="250" as="targetPoint" />
          </mxGeometry>
        </mxCell>
        <mxCell id="l1wgovTy8GZiNXY8hCqC-19" value="" style="ellipse;whiteSpace=wrap;html=1;" vertex="1" parent="1">
          <mxGeometry x="385" y="160" width="155" height="80" as="geometry" />
        </mxCell>
        <mxCell id="l1wgovTy8GZiNXY8hCqC-21" value="" style="ellipse;whiteSpace=wrap;html=1;" vertex="1" parent="1">
          <mxGeometry x="380" y="360" width="160" height="90" as="geometry" />
        </mxCell>
        <mxCell id="l1wgovTy8GZiNXY8hCqC-22" value="random angka" style="text;html=1;strokeColor=none;fillColor=none;align=center;verticalAlign=middle;whiteSpace=wrap;rounded=0;" vertex="1" parent="1">
          <mxGeometry x="402.5" y="185" width="120" height="30" as="geometry" />
        </mxCell>
        <mxCell id="l1wgovTy8GZiNXY8hCqC-23" value="tebak angka" style="text;html=1;strokeColor=none;fillColor=none;align=center;verticalAlign=middle;whiteSpace=wrap;rounded=0;" vertex="1" parent="1">
          <mxGeometry x="395" y="390" width="130" height="30" as="geometry" />
        </mxCell>
        <mxCell id="l1wgovTy8GZiNXY8hCqC-30" value="computer" style="shape=umlActor;verticalLabelPosition=bottom;verticalAlign=top;html=1;outlineConnect=0;" vertex="1" parent="1">
          <mxGeometry x="60" y="190" width="90" height="170" as="geometry" />
        </mxCell>
        <mxCell id="l1wgovTy8GZiNXY8hCqC-31" value="GAME TEBAK ANGKA" style="text;html=1;strokeColor=none;fillColor=none;align=center;verticalAlign=middle;whiteSpace=wrap;rounded=0;" vertex="1" parent="1">
          <mxGeometry x="300" y="100" width="290" height="30" as="geometry" />
        </mxCell>
      </root>
    </mxGraphModel>
  </diagram>
</mxfile>
